<svg width="1224" height="55" viewBox="0 0 1224 55" fill="none" xmlns="http://www.w3.org/2000/svg">
<rect width="1224" height="55" fill="#353945"/>
<rect x="37" y="22.5" width="10" height="10" rx="5" fill="#DC4743"/>
<path d="M79.796 31L78.036 27.942H77.079V31H75.825V23.355H78.465C79.0517 23.355 79.5467 23.4577 79.95 23.663C80.3607 23.8683 80.665 24.1433 80.863 24.488C81.0683 24.8327 81.171 25.2177 81.171 25.643C81.171 26.1417 81.0243 26.5963 80.731 27.007C80.445 27.4103 80.0013 27.6853 79.4 27.832L81.292 31H79.796ZM77.079 26.941H78.465C78.9343 26.941 79.2863 26.8237 79.521 26.589C79.763 26.3543 79.884 26.039 79.884 25.643C79.884 25.247 79.7667 24.939 79.532 24.719C79.2973 24.4917 78.9417 24.378 78.465 24.378H77.079V26.941ZM88.3302 27.821C88.3302 28.0483 88.3155 28.2537 88.2862 28.437H83.6552C83.6919 28.921 83.8715 29.3097 84.1942 29.603C84.5169 29.8963 84.9129 30.043 85.3822 30.043C86.0569 30.043 86.5335 29.7607 86.8122 29.196H88.1652C87.9819 29.7533 87.6482 30.2117 87.1642 30.571C86.6875 30.923 86.0935 31.099 85.3822 31.099C84.8029 31.099 84.2822 30.9707 83.8202 30.714C83.3655 30.45 83.0062 30.0833 82.7422 29.614C82.4855 29.1373 82.3572 28.5873 82.3572 27.964C82.3572 27.3407 82.4819 26.7943 82.7312 26.325C82.9879 25.8483 83.3435 25.4817 83.7982 25.225C84.2602 24.9683 84.7882 24.84 85.3822 24.84C85.9542 24.84 86.4639 24.9647 86.9112 25.214C87.3585 25.4633 87.7069 25.8153 87.9562 26.27C88.2055 26.7173 88.3302 27.2343 88.3302 27.821ZM87.0212 27.425C87.0139 26.963 86.8489 26.5927 86.5262 26.314C86.2035 26.0353 85.8039 25.896 85.3272 25.896C84.8945 25.896 84.5242 26.0353 84.2162 26.314C83.9082 26.5853 83.7249 26.9557 83.6662 27.425H87.0212ZM92.0063 24.84C92.4756 24.84 92.8899 24.9353 93.2493 25.126C93.6159 25.3093 93.9019 25.5403 94.1073 25.819V24.939H95.3723V31.099C95.3723 31.6563 95.2549 32.1513 95.0203 32.584C94.7856 33.024 94.4446 33.3687 93.9973 33.618C93.5573 33.8673 93.0293 33.992 92.4133 33.992C91.5919 33.992 90.9099 33.7977 90.3673 33.409C89.8246 33.0277 89.5166 32.507 89.4433 31.847H90.6863C90.7816 32.1623 90.9833 32.4153 91.2913 32.606C91.6066 32.804 91.9806 32.903 92.4133 32.903C92.9193 32.903 93.3263 32.749 93.6343 32.441C93.9496 32.133 94.1073 31.6857 94.1073 31.099V30.087C93.8946 30.373 93.6049 30.615 93.2383 30.813C92.8789 31.0037 92.4683 31.099 92.0063 31.099C91.4783 31.099 90.9943 30.967 90.5543 30.703C90.1216 30.4317 89.7769 30.0577 89.5203 29.581C89.2709 29.097 89.1463 28.5507 89.1463 27.942C89.1463 27.3333 89.2709 26.7943 89.5203 26.325C89.7769 25.8557 90.1216 25.4927 90.5543 25.236C90.9943 24.972 91.4783 24.84 92.0063 24.84ZM94.1073 27.964C94.1073 27.546 94.0193 27.183 93.8433 26.875C93.6746 26.567 93.4509 26.3323 93.1723 26.171C92.8936 26.0097 92.5929 25.929 92.2703 25.929C91.9476 25.929 91.6469 26.0097 91.3683 26.171C91.0896 26.325 90.8623 26.556 90.6863 26.864C90.5176 27.1647 90.4333 27.524 90.4333 27.942C90.4333 28.36 90.5176 28.7267 90.6863 29.042C90.8623 29.3573 91.0896 29.5993 91.3683 29.768C91.6543 29.9293 91.9549 30.01 92.2703 30.01C92.5929 30.01 92.8936 29.9293 93.1723 29.768C93.4509 29.6067 93.6746 29.372 93.8433 29.064C94.0193 28.7487 94.1073 28.382 94.1073 27.964ZM97.6573 24.136C97.43 24.136 97.2393 24.059 97.0853 23.905C96.9313 23.751 96.8543 23.5603 96.8543 23.333C96.8543 23.1057 96.9313 22.915 97.0853 22.761C97.2393 22.607 97.43 22.53 97.6573 22.53C97.8773 22.53 98.0643 22.607 98.2183 22.761C98.3723 22.915 98.4493 23.1057 98.4493 23.333C98.4493 23.5603 98.3723 23.751 98.2183 23.905C98.0643 24.059 97.8773 24.136 97.6573 24.136ZM98.2733 24.939V31H97.0193V24.939H98.2733ZM102.12 31.099C101.643 31.099 101.214 31.0147 100.833 30.846C100.459 30.67 100.162 30.4353 99.9417 30.142C99.7217 29.8413 99.6044 29.5077 99.5897 29.141H100.888C100.91 29.3977 101.031 29.614 101.251 29.79C101.478 29.9587 101.76 30.043 102.098 30.043C102.45 30.043 102.721 29.977 102.912 29.845C103.11 29.7057 103.209 29.5297 103.209 29.317C103.209 29.0897 103.099 28.921 102.879 28.811C102.666 28.701 102.325 28.58 101.856 28.448C101.401 28.3233 101.031 28.2023 100.745 28.085C100.459 27.9677 100.209 27.788 99.9967 27.546C99.7914 27.304 99.6887 26.985 99.6887 26.589C99.6887 26.2663 99.7841 25.973 99.9747 25.709C100.165 25.4377 100.437 25.225 100.789 25.071C101.148 24.917 101.559 24.84 102.021 24.84C102.71 24.84 103.264 25.016 103.682 25.368C104.107 25.7127 104.334 26.1857 104.364 26.787H103.11C103.088 26.5157 102.978 26.2993 102.78 26.138C102.582 25.9767 102.314 25.896 101.977 25.896C101.647 25.896 101.394 25.9583 101.218 26.083C101.042 26.2077 100.954 26.3727 100.954 26.578C100.954 26.7393 101.012 26.875 101.13 26.985C101.247 27.095 101.39 27.183 101.559 27.249C101.727 27.3077 101.977 27.3847 102.307 27.48C102.747 27.5973 103.106 27.7183 103.385 27.843C103.671 27.9603 103.916 28.1363 104.122 28.371C104.327 28.6057 104.433 28.9173 104.441 29.306C104.441 29.6507 104.345 29.9587 104.155 30.23C103.964 30.5013 103.693 30.714 103.341 30.868C102.996 31.022 102.589 31.099 102.12 31.099ZM107.259 25.962V29.317C107.259 29.5443 107.31 29.7093 107.413 29.812C107.523 29.9073 107.706 29.955 107.963 29.955H108.733V31H107.743C107.178 31 106.745 30.868 106.445 30.604C106.144 30.34 105.994 29.911 105.994 29.317V25.962H105.279V24.939H105.994V23.432H107.259V24.939H108.733V25.962H107.259ZM115.443 27.821C115.443 28.0483 115.429 28.2537 115.399 28.437H110.768C110.805 28.921 110.985 29.3097 111.307 29.603C111.63 29.8963 112.026 30.043 112.495 30.043C113.17 30.043 113.647 29.7607 113.925 29.196H115.278C115.095 29.7533 114.761 30.2117 114.277 30.571C113.801 30.923 113.207 31.099 112.495 31.099C111.916 31.099 111.395 30.9707 110.933 30.714C110.479 30.45 110.119 30.0833 109.855 29.614C109.599 29.1373 109.47 28.5873 109.47 27.964C109.47 27.3407 109.595 26.7943 109.844 26.325C110.101 25.8483 110.457 25.4817 110.911 25.225C111.373 24.9683 111.901 24.84 112.495 24.84C113.067 24.84 113.577 24.9647 114.024 25.214C114.472 25.4633 114.82 25.8153 115.069 26.27C115.319 26.7173 115.443 27.2343 115.443 27.821ZM114.134 27.425C114.127 26.963 113.962 26.5927 113.639 26.314C113.317 26.0353 112.917 25.896 112.44 25.896C112.008 25.896 111.637 26.0353 111.329 26.314C111.021 26.5853 110.838 26.9557 110.779 27.425H114.134ZM117.932 25.819C118.115 25.511 118.357 25.2727 118.658 25.104C118.966 24.928 119.329 24.84 119.747 24.84V26.138H119.428C118.936 26.138 118.562 26.2627 118.306 26.512C118.056 26.7613 117.932 27.194 117.932 27.81V31H116.678V24.939H117.932V25.819ZM130.038 31H128.784L125.011 25.291V31H123.757V23.344H125.011L128.784 29.042V23.344H130.038V31ZM134.313 31.099C133.741 31.099 133.224 30.9707 132.762 30.714C132.3 30.45 131.937 30.0833 131.673 29.614C131.409 29.1373 131.277 28.5873 131.277 27.964C131.277 27.348 131.413 26.8017 131.684 26.325C131.956 25.8483 132.326 25.4817 132.795 25.225C133.265 24.9683 133.789 24.84 134.368 24.84C134.948 24.84 135.472 24.9683 135.941 25.225C136.411 25.4817 136.781 25.8483 137.052 26.325C137.324 26.8017 137.459 27.348 137.459 27.964C137.459 28.58 137.32 29.1263 137.041 29.603C136.763 30.0797 136.381 30.45 135.897 30.714C135.421 30.9707 134.893 31.099 134.313 31.099ZM134.313 30.01C134.636 30.01 134.937 29.933 135.215 29.779C135.501 29.625 135.732 29.394 135.908 29.086C136.084 28.778 136.172 28.404 136.172 27.964C136.172 27.524 136.088 27.1537 135.919 26.853C135.751 26.545 135.527 26.314 135.248 26.16C134.97 26.006 134.669 25.929 134.346 25.929C134.024 25.929 133.723 26.006 133.444 26.16C133.173 26.314 132.957 26.545 132.795 26.853C132.634 27.1537 132.553 27.524 132.553 27.964C132.553 28.6167 132.718 29.1227 133.048 29.482C133.386 29.834 133.807 30.01 134.313 30.01ZM146.839 24.939L144.958 31H143.638L142.417 26.523L141.196 31H139.876L137.984 24.939H139.26L140.525 29.812L141.812 24.939H143.121L144.353 29.79L145.607 24.939H146.839Z" fill="#D6D6D6"/>
<rect x="175" y="22.5" width="10" height="10" rx="5" fill="#DC4743"/>
<path d="M216.344 31.077C215.831 31.077 215.369 30.989 214.958 30.813C214.547 30.6297 214.225 30.373 213.99 30.043C213.755 29.713 213.638 29.328 213.638 28.888H214.98C215.009 29.218 215.138 29.4893 215.365 29.702C215.6 29.9147 215.926 30.021 216.344 30.021C216.777 30.021 217.114 29.9183 217.356 29.713C217.598 29.5003 217.719 29.229 217.719 28.899C217.719 28.6423 217.642 28.4333 217.488 28.272C217.341 28.1107 217.154 27.986 216.927 27.898C216.707 27.81 216.399 27.7147 216.003 27.612C215.504 27.48 215.097 27.348 214.782 27.216C214.474 27.0767 214.21 26.864 213.99 26.578C213.77 26.292 213.66 25.9107 213.66 25.434C213.66 24.994 213.77 24.609 213.99 24.279C214.21 23.949 214.518 23.696 214.914 23.52C215.31 23.344 215.768 23.256 216.289 23.256C217.03 23.256 217.635 23.443 218.104 23.817C218.581 24.1837 218.845 24.6897 218.896 25.335H217.51C217.488 25.0563 217.356 24.818 217.114 24.62C216.872 24.422 216.553 24.323 216.157 24.323C215.798 24.323 215.504 24.4147 215.277 24.598C215.05 24.7813 214.936 25.0453 214.936 25.39C214.936 25.6247 215.006 25.819 215.145 25.973C215.292 26.1197 215.475 26.237 215.695 26.325C215.915 26.413 216.216 26.5083 216.597 26.611C217.103 26.7503 217.514 26.8897 217.829 27.029C218.152 27.1683 218.423 27.3847 218.643 27.678C218.87 27.964 218.984 28.349 218.984 28.833C218.984 29.2217 218.878 29.5883 218.665 29.933C218.46 30.2777 218.155 30.5563 217.752 30.769C217.356 30.9743 216.887 31.077 216.344 31.077ZM226.019 27.821C226.019 28.0483 226.004 28.2537 225.975 28.437H221.344C221.38 28.921 221.56 29.3097 221.883 29.603C222.205 29.8963 222.601 30.043 223.071 30.043C223.745 30.043 224.222 29.7607 224.501 29.196H225.854C225.67 29.7533 225.337 30.2117 224.853 30.571C224.376 30.923 223.782 31.099 223.071 31.099C222.491 31.099 221.971 30.9707 221.509 30.714C221.054 30.45 220.695 30.0833 220.431 29.614C220.174 29.1373 220.046 28.5873 220.046 27.964C220.046 27.3407 220.17 26.7943 220.42 26.325C220.676 25.8483 221.032 25.4817 221.487 25.225C221.949 24.9683 222.477 24.84 223.071 24.84C223.643 24.84 224.152 24.9647 224.6 25.214C225.047 25.4633 225.395 25.8153 225.645 26.27C225.894 26.7173 226.019 27.2343 226.019 27.821ZM224.71 27.425C224.702 26.963 224.537 26.5927 224.215 26.314C223.892 26.0353 223.492 25.896 223.016 25.896C222.583 25.896 222.213 26.0353 221.905 26.314C221.597 26.5853 221.413 26.9557 221.355 27.425H224.71ZM226.835 27.964C226.835 27.3407 226.959 26.7943 227.209 26.325C227.465 25.8483 227.817 25.4817 228.265 25.225C228.712 24.9683 229.225 24.84 229.805 24.84C230.538 24.84 231.143 25.016 231.62 25.368C232.104 25.7127 232.43 26.2077 232.599 26.853H231.246C231.136 26.5523 230.96 26.3177 230.718 26.149C230.476 25.9803 230.171 25.896 229.805 25.896C229.291 25.896 228.881 26.0793 228.573 26.446C228.272 26.8053 228.122 27.3113 228.122 27.964C228.122 28.6167 228.272 29.1263 228.573 29.493C228.881 29.8597 229.291 30.043 229.805 30.043C230.531 30.043 231.011 29.724 231.246 29.086H232.599C232.423 29.702 232.093 30.1933 231.609 30.56C231.125 30.9193 230.523 31.099 229.805 31.099C229.225 31.099 228.712 30.9707 228.265 30.714C227.817 30.45 227.465 30.0833 227.209 29.614C226.959 29.1373 226.835 28.5873 226.835 27.964ZM239.337 24.939V31H238.083V30.285C237.885 30.5343 237.625 30.7323 237.302 30.879C236.987 31.0183 236.65 31.088 236.29 31.088C235.814 31.088 235.385 30.989 235.003 30.791C234.629 30.593 234.332 30.2997 234.112 29.911C233.9 29.5223 233.793 29.053 233.793 28.503V24.939H235.036V28.316C235.036 28.8587 235.172 29.2767 235.443 29.57C235.715 29.856 236.085 29.999 236.554 29.999C237.024 29.999 237.394 29.856 237.665 29.57C237.944 29.2767 238.083 28.8587 238.083 28.316V24.939H239.337ZM242.246 25.819C242.429 25.511 242.671 25.2727 242.972 25.104C243.28 24.928 243.643 24.84 244.061 24.84V26.138H243.742C243.251 26.138 242.877 26.2627 242.62 26.512C242.371 26.7613 242.246 27.194 242.246 27.81V31H240.992V24.939H242.246V25.819ZM250.769 27.821C250.769 28.0483 250.754 28.2537 250.725 28.437H246.094C246.13 28.921 246.31 29.3097 246.633 29.603C246.955 29.8963 247.351 30.043 247.821 30.043C248.495 30.043 248.972 29.7607 249.251 29.196H250.604C250.42 29.7533 250.087 30.2117 249.603 30.571C249.126 30.923 248.532 31.099 247.821 31.099C247.241 31.099 246.721 30.9707 246.259 30.714C245.804 30.45 245.445 30.0833 245.181 29.614C244.924 29.1373 244.796 28.5873 244.796 27.964C244.796 27.3407 244.92 26.7943 245.17 26.325C245.426 25.8483 245.782 25.4817 246.237 25.225C246.699 24.9683 247.227 24.84 247.821 24.84C248.393 24.84 248.902 24.9647 249.35 25.214C249.797 25.4633 250.145 25.8153 250.395 26.27C250.644 26.7173 250.769 27.2343 250.769 27.821ZM249.46 27.425C249.452 26.963 249.287 26.5927 248.965 26.314C248.642 26.0353 248.242 25.896 247.766 25.896C247.333 25.896 246.963 26.0353 246.655 26.314C246.347 26.5853 246.163 26.9557 246.105 27.425H249.46ZM263.174 24.939L259.456 33.849H258.158L259.39 30.901L257.003 24.939H258.4L260.105 29.559L261.876 24.939H263.174ZM266.749 31.099C266.177 31.099 265.66 30.9707 265.198 30.714C264.736 30.45 264.373 30.0833 264.109 29.614C263.845 29.1373 263.713 28.5873 263.713 27.964C263.713 27.348 263.849 26.8017 264.12 26.325C264.391 25.8483 264.762 25.4817 265.231 25.225C265.7 24.9683 266.225 24.84 266.804 24.84C267.383 24.84 267.908 24.9683 268.377 25.225C268.846 25.4817 269.217 25.8483 269.488 26.325C269.759 26.8017 269.895 27.348 269.895 27.964C269.895 28.58 269.756 29.1263 269.477 29.603C269.198 30.0797 268.817 30.45 268.333 30.714C267.856 30.9707 267.328 31.099 266.749 31.099ZM266.749 30.01C267.072 30.01 267.372 29.933 267.651 29.779C267.937 29.625 268.168 29.394 268.344 29.086C268.52 28.778 268.608 28.404 268.608 27.964C268.608 27.524 268.524 27.1537 268.355 26.853C268.186 26.545 267.963 26.314 267.684 26.16C267.405 26.006 267.105 25.929 266.782 25.929C266.459 25.929 266.159 26.006 265.88 26.16C265.609 26.314 265.392 26.545 265.231 26.853C265.07 27.1537 264.989 27.524 264.989 27.964C264.989 28.6167 265.154 29.1227 265.484 29.482C265.821 29.834 266.243 30.01 266.749 30.01ZM276.624 24.939V31H275.37V30.285C275.172 30.5343 274.911 30.7323 274.589 30.879C274.273 31.0183 273.936 31.088 273.577 31.088C273.1 31.088 272.671 30.989 272.29 30.791C271.916 30.593 271.619 30.2997 271.399 29.911C271.186 29.5223 271.08 29.053 271.08 28.503V24.939H272.323V28.316C272.323 28.8587 272.458 29.2767 272.73 29.57C273.001 29.856 273.371 29.999 273.841 29.999C274.31 29.999 274.68 29.856 274.952 29.57C275.23 29.2767 275.37 28.8587 275.37 28.316V24.939H276.624ZM279.532 25.819C279.715 25.511 279.957 25.2727 280.258 25.104C280.566 24.928 280.929 24.84 281.347 24.84V26.138H281.028C280.537 26.138 280.163 26.2627 279.906 26.512C279.657 26.7613 279.532 27.194 279.532 27.81V31H278.278V24.939H279.532V25.819ZM287.557 31.099C287.081 31.099 286.652 31.0147 286.27 30.846C285.896 30.67 285.599 30.4353 285.379 30.142C285.159 29.8413 285.042 29.5077 285.027 29.141H286.325C286.347 29.3977 286.468 29.614 286.688 29.79C286.916 29.9587 287.198 30.043 287.535 30.043C287.887 30.043 288.159 29.977 288.349 29.845C288.547 29.7057 288.646 29.5297 288.646 29.317C288.646 29.0897 288.536 28.921 288.316 28.811C288.104 28.701 287.763 28.58 287.293 28.448C286.839 28.3233 286.468 28.2023 286.182 28.085C285.896 27.9677 285.647 27.788 285.434 27.546C285.229 27.304 285.126 26.985 285.126 26.589C285.126 26.2663 285.222 25.973 285.412 25.709C285.603 25.4377 285.874 25.225 286.226 25.071C286.586 24.917 286.996 24.84 287.458 24.84C288.148 24.84 288.701 25.016 289.119 25.368C289.545 25.7127 289.772 26.1857 289.801 26.787H288.547C288.525 26.5157 288.415 26.2993 288.217 26.138C288.019 25.9767 287.752 25.896 287.414 25.896C287.084 25.896 286.831 25.9583 286.655 26.083C286.479 26.2077 286.391 26.3727 286.391 26.578C286.391 26.7393 286.45 26.875 286.567 26.985C286.685 27.095 286.828 27.183 286.996 27.249C287.165 27.3077 287.414 27.3847 287.744 27.48C288.184 27.5973 288.544 27.7183 288.822 27.843C289.108 27.9603 289.354 28.1363 289.559 28.371C289.765 28.6057 289.871 28.9173 289.878 29.306C289.878 29.6507 289.783 29.9587 289.592 30.23C289.402 30.5013 289.13 30.714 288.778 30.868C288.434 31.022 288.027 31.099 287.557 31.099ZM292.487 22.86V31H291.233V22.86H292.487ZM296.763 31.099C296.191 31.099 295.674 30.9707 295.212 30.714C294.75 30.45 294.387 30.0833 294.123 29.614C293.859 29.1373 293.727 28.5873 293.727 27.964C293.727 27.348 293.862 26.8017 294.134 26.325C294.405 25.8483 294.775 25.4817 295.245 25.225C295.714 24.9683 296.238 24.84 296.818 24.84C297.397 24.84 297.921 24.9683 298.391 25.225C298.86 25.4817 299.23 25.8483 299.502 26.325C299.773 26.8017 299.909 27.348 299.909 27.964C299.909 28.58 299.769 29.1263 299.491 29.603C299.212 30.0797 298.831 30.45 298.347 30.714C297.87 30.9707 297.342 31.099 296.763 31.099ZM296.763 30.01C297.085 30.01 297.386 29.933 297.665 29.779C297.951 29.625 298.182 29.394 298.358 29.086C298.534 28.778 298.622 28.404 298.622 27.964C298.622 27.524 298.537 27.1537 298.369 26.853C298.2 26.545 297.976 26.314 297.698 26.16C297.419 26.006 297.118 25.929 296.796 25.929C296.473 25.929 296.172 26.006 295.894 26.16C295.622 26.314 295.406 26.545 295.245 26.853C295.083 27.1537 295.003 27.524 295.003 27.964C295.003 28.6167 295.168 29.1227 295.498 29.482C295.835 29.834 296.257 30.01 296.763 30.01ZM302.611 25.962V29.317C302.611 29.5443 302.663 29.7093 302.765 29.812C302.875 29.9073 303.059 29.955 303.315 29.955H304.085V31H303.095C302.531 31 302.098 30.868 301.797 30.604C301.497 30.34 301.346 29.911 301.346 29.317V25.962H300.631V24.939H301.346V23.432H302.611V24.939H304.085V25.962H302.611Z" fill="#D6D6D6"/>
<rect x="333" y="22.5" width="10" height="10" rx="5" fill="#DC4743"/>
<path d="M376.764 23.355V24.378H374.729V31H373.475V24.378H371.429V23.355H376.764ZM382.126 27.073C382.537 27.1463 382.885 27.3627 383.171 27.722C383.457 28.0813 383.6 28.4883 383.6 28.943C383.6 29.3317 383.497 29.6837 383.292 29.999C383.094 30.307 382.804 30.5527 382.423 30.736C382.042 30.912 381.598 31 381.092 31H378.034V23.355H380.949C381.47 23.355 381.917 23.443 382.291 23.619C382.665 23.795 382.947 24.0333 383.138 24.334C383.329 24.6273 383.424 24.9573 383.424 25.324C383.424 25.764 383.307 26.1307 383.072 26.424C382.837 26.7173 382.522 26.9337 382.126 27.073ZM379.288 26.567H380.839C381.25 26.567 381.569 26.4753 381.796 26.292C382.031 26.1013 382.148 25.83 382.148 25.478C382.148 25.1333 382.031 24.8657 381.796 24.675C381.569 24.477 381.25 24.378 380.839 24.378H379.288V26.567ZM380.982 29.977C381.407 29.977 381.741 29.8743 381.983 29.669C382.225 29.4637 382.346 29.1777 382.346 28.811C382.346 28.437 382.218 28.14 381.961 27.92C381.704 27.7 381.363 27.59 380.938 27.59H379.288V29.977H380.982ZM386.217 29.988H388.802V31H384.963V23.355H386.217V29.988ZM396.8 27.073C397.21 27.1463 397.559 27.3627 397.845 27.722C398.131 28.0813 398.274 28.4883 398.274 28.943C398.274 29.3317 398.171 29.6837 397.966 29.999C397.768 30.307 397.478 30.5527 397.097 30.736C396.715 30.912 396.272 31 395.766 31H392.708V23.355H395.623C396.143 23.355 396.591 23.443 396.965 23.619C397.339 23.795 397.621 24.0333 397.812 24.334C398.002 24.6273 398.098 24.9573 398.098 25.324C398.098 25.764 397.98 26.1307 397.746 26.424C397.511 26.7173 397.196 26.9337 396.8 27.073ZM393.962 26.567H395.513C395.923 26.567 396.242 26.4753 396.47 26.292C396.704 26.1013 396.822 25.83 396.822 25.478C396.822 25.1333 396.704 24.8657 396.47 24.675C396.242 24.477 395.923 24.378 395.513 24.378H393.962V26.567ZM395.656 29.977C396.081 29.977 396.415 29.8743 396.657 29.669C396.899 29.4637 397.02 29.1777 397.02 28.811C397.02 28.437 396.891 28.14 396.635 27.92C396.378 27.7 396.037 27.59 395.612 27.59H393.962V29.977H395.656ZM399.219 27.942C399.219 27.3333 399.343 26.7943 399.593 26.325C399.849 25.8557 400.194 25.4927 400.627 25.236C401.067 24.972 401.551 24.84 402.079 24.84C402.555 24.84 402.97 24.9353 403.322 25.126C403.681 25.3093 403.967 25.5403 404.18 25.819V24.939H405.445V31H404.18V30.098C403.967 30.384 403.677 30.6223 403.311 30.813C402.944 31.0037 402.526 31.099 402.057 31.099C401.536 31.099 401.059 30.967 400.627 30.703C400.194 30.4317 399.849 30.0577 399.593 29.581C399.343 29.097 399.219 28.5507 399.219 27.942ZM404.18 27.964C404.18 27.546 404.092 27.183 403.916 26.875C403.747 26.567 403.523 26.3323 403.245 26.171C402.966 26.0097 402.665 25.929 402.343 25.929C402.02 25.929 401.719 26.0097 401.441 26.171C401.162 26.325 400.935 26.556 400.759 26.864C400.59 27.1647 400.506 27.524 400.506 27.942C400.506 28.36 400.59 28.7267 400.759 29.042C400.935 29.3573 401.162 29.5993 401.441 29.768C401.727 29.9293 402.027 30.01 402.343 30.01C402.665 30.01 402.966 29.9293 403.245 29.768C403.523 29.6067 403.747 29.372 403.916 29.064C404.092 28.7487 404.18 28.382 404.18 27.964ZM409.292 31.099C408.815 31.099 408.386 31.0147 408.005 30.846C407.631 30.67 407.334 30.4353 407.114 30.142C406.894 29.8413 406.776 29.5077 406.762 29.141H408.06C408.082 29.3977 408.203 29.614 408.423 29.79C408.65 29.9587 408.932 30.043 409.27 30.043C409.622 30.043 409.893 29.977 410.084 29.845C410.282 29.7057 410.381 29.5297 410.381 29.317C410.381 29.0897 410.271 28.921 410.051 28.811C409.838 28.701 409.497 28.58 409.028 28.448C408.573 28.3233 408.203 28.2023 407.917 28.085C407.631 27.9677 407.381 27.788 407.169 27.546C406.963 27.304 406.861 26.985 406.861 26.589C406.861 26.2663 406.956 25.973 407.147 25.709C407.337 25.4377 407.609 25.225 407.961 25.071C408.32 24.917 408.731 24.84 409.193 24.84C409.882 24.84 410.436 25.016 410.854 25.368C411.279 25.7127 411.506 26.1857 411.536 26.787H410.282C410.26 26.5157 410.15 26.2993 409.952 26.138C409.754 25.9767 409.486 25.896 409.149 25.896C408.819 25.896 408.566 25.9583 408.39 26.083C408.214 26.2077 408.126 26.3727 408.126 26.578C408.126 26.7393 408.184 26.875 408.302 26.985C408.419 27.095 408.562 27.183 408.731 27.249C408.899 27.3077 409.149 27.3847 409.479 27.48C409.919 27.5973 410.278 27.7183 410.557 27.843C410.843 27.9603 411.088 28.1363 411.294 28.371C411.499 28.6057 411.605 28.9173 411.613 29.306C411.613 29.6507 411.517 29.9587 411.327 30.23C411.136 30.5013 410.865 30.714 410.513 30.868C410.168 31.022 409.761 31.099 409.292 31.099ZM415.366 27.975L418.16 31H416.466L414.222 28.393V31H412.968V22.86H414.222V27.59L416.422 24.939H418.16L415.366 27.975ZM424.613 27.821C424.613 28.0483 424.599 28.2537 424.569 28.437H419.938C419.975 28.921 420.155 29.3097 420.477 29.603C420.8 29.8963 421.196 30.043 421.665 30.043C422.34 30.043 422.817 29.7607 423.095 29.196H424.448C424.265 29.7533 423.931 30.2117 423.447 30.571C422.971 30.923 422.377 31.099 421.665 31.099C421.086 31.099 420.565 30.9707 420.103 30.714C419.649 30.45 419.289 30.0833 419.025 29.614C418.769 29.1373 418.64 28.5873 418.64 27.964C418.64 27.3407 418.765 26.7943 419.014 26.325C419.271 25.8483 419.627 25.4817 420.081 25.225C420.543 24.9683 421.071 24.84 421.665 24.84C422.237 24.84 422.747 24.9647 423.194 25.214C423.642 25.4633 423.99 25.8153 424.239 26.27C424.489 26.7173 424.613 27.2343 424.613 27.821ZM423.304 27.425C423.297 26.963 423.132 26.5927 422.809 26.314C422.487 26.0353 422.087 25.896 421.61 25.896C421.178 25.896 420.807 26.0353 420.499 26.314C420.191 26.5853 420.008 26.9557 419.949 27.425H423.304ZM427.31 25.962V29.317C427.31 29.5443 427.362 29.7093 427.464 29.812C427.574 29.9073 427.758 29.955 428.014 29.955H428.784V31H427.794C427.23 31 426.797 30.868 426.496 30.604C426.196 30.34 426.045 29.911 426.045 29.317V25.962H425.33V24.939H426.045V23.432H427.31V24.939H428.784V25.962H427.31ZM431.194 25.841C431.407 25.5477 431.697 25.3093 432.063 25.126C432.437 24.9353 432.852 24.84 433.306 24.84C433.842 24.84 434.326 24.9683 434.758 25.225C435.191 25.4817 435.532 25.8483 435.781 26.325C436.031 26.7943 436.155 27.3333 436.155 27.942C436.155 28.5507 436.031 29.097 435.781 29.581C435.532 30.0577 435.187 30.4317 434.747 30.703C434.315 30.967 433.834 31.099 433.306 31.099C432.837 31.099 432.419 31.0073 432.052 30.824C431.693 30.6407 431.407 30.406 431.194 30.12V31H429.94V22.86H431.194V25.841ZM434.879 27.942C434.879 27.524 434.791 27.1647 434.615 26.864C434.447 26.556 434.219 26.325 433.933 26.171C433.655 26.0097 433.354 25.929 433.031 25.929C432.716 25.929 432.415 26.0097 432.129 26.171C431.851 26.3323 431.623 26.567 431.447 26.875C431.279 27.183 431.194 27.546 431.194 27.964C431.194 28.382 431.279 28.7487 431.447 29.064C431.623 29.372 431.851 29.6067 432.129 29.768C432.415 29.9293 432.716 30.01 433.031 30.01C433.354 30.01 433.655 29.9293 433.933 29.768C434.219 29.5993 434.447 29.3573 434.615 29.042C434.791 28.7267 434.879 28.36 434.879 27.942ZM436.977 27.942C436.977 27.3333 437.102 26.7943 437.351 26.325C437.608 25.8557 437.953 25.4927 438.385 25.236C438.825 24.972 439.309 24.84 439.837 24.84C440.314 24.84 440.728 24.9353 441.08 25.126C441.44 25.3093 441.726 25.5403 441.938 25.819V24.939H443.203V31H441.938V30.098C441.726 30.384 441.436 30.6223 441.069 30.813C440.703 31.0037 440.285 31.099 439.815 31.099C439.295 31.099 438.818 30.967 438.385 30.703C437.953 30.4317 437.608 30.0577 437.351 29.581C437.102 29.097 436.977 28.5507 436.977 27.942ZM441.938 27.964C441.938 27.546 441.85 27.183 441.674 26.875C441.506 26.567 441.282 26.3323 441.003 26.171C440.725 26.0097 440.424 25.929 440.101 25.929C439.779 25.929 439.478 26.0097 439.199 26.171C438.921 26.325 438.693 26.556 438.517 26.864C438.349 27.1647 438.264 27.524 438.264 27.942C438.264 28.36 438.349 28.7267 438.517 29.042C438.693 29.3573 438.921 29.5993 439.199 29.768C439.485 29.9293 439.786 30.01 440.101 30.01C440.424 30.01 440.725 29.9293 441.003 29.768C441.282 29.6067 441.506 29.372 441.674 29.064C441.85 28.7487 441.938 28.382 441.938 27.964ZM446.104 22.86V31H444.85V22.86H446.104ZM449.005 22.86V31H447.751V22.86H449.005Z" fill="#D6D6D6"/>
<rect x="478" y="22.5" width="10" height="10" rx="5" fill="#DC4743"/>
<path d="M520.796 31L519.036 27.942H518.079V31H516.825V23.355H519.465C520.052 23.355 520.547 23.4577 520.95 23.663C521.361 23.8683 521.665 24.1433 521.863 24.488C522.068 24.8327 522.171 25.2177 522.171 25.643C522.171 26.1417 522.024 26.5963 521.731 27.007C521.445 27.4103 521.001 27.6853 520.4 27.832L522.292 31H520.796ZM518.079 26.941H519.465C519.934 26.941 520.286 26.8237 520.521 26.589C520.763 26.3543 520.884 26.039 520.884 25.643C520.884 25.247 520.767 24.939 520.532 24.719C520.297 24.4917 519.942 24.378 519.465 24.378H518.079V26.941ZM529.33 27.821C529.33 28.0483 529.316 28.2537 529.286 28.437H524.655C524.692 28.921 524.872 29.3097 525.194 29.603C525.517 29.8963 525.913 30.043 526.382 30.043C527.057 30.043 527.534 29.7607 527.812 29.196H529.165C528.982 29.7533 528.648 30.2117 528.164 30.571C527.688 30.923 527.094 31.099 526.382 31.099C525.803 31.099 525.282 30.9707 524.82 30.714C524.366 30.45 524.006 30.0833 523.742 29.614C523.486 29.1373 523.357 28.5873 523.357 27.964C523.357 27.3407 523.482 26.7943 523.731 26.325C523.988 25.8483 524.344 25.4817 524.798 25.225C525.26 24.9683 525.788 24.84 526.382 24.84C526.954 24.84 527.464 24.9647 527.911 25.214C528.359 25.4633 528.707 25.8153 528.956 26.27C529.206 26.7173 529.33 27.2343 529.33 27.821ZM528.021 27.425C528.014 26.963 527.849 26.5927 527.526 26.314C527.204 26.0353 526.804 25.896 526.327 25.896C525.895 25.896 525.524 26.0353 525.216 26.314C524.908 26.5853 524.725 26.9557 524.666 27.425H528.021ZM533.006 24.84C533.476 24.84 533.89 24.9353 534.249 25.126C534.616 25.3093 534.902 25.5403 535.107 25.819V24.939H536.372V31.099C536.372 31.6563 536.255 32.1513 536.02 32.584C535.786 33.024 535.445 33.3687 534.997 33.618C534.557 33.8673 534.029 33.992 533.413 33.992C532.592 33.992 531.91 33.7977 531.367 33.409C530.825 33.0277 530.517 32.507 530.443 31.847H531.686C531.782 32.1623 531.983 32.4153 532.291 32.606C532.607 32.804 532.981 32.903 533.413 32.903C533.919 32.903 534.326 32.749 534.634 32.441C534.95 32.133 535.107 31.6857 535.107 31.099V30.087C534.895 30.373 534.605 30.615 534.238 30.813C533.879 31.0037 533.468 31.099 533.006 31.099C532.478 31.099 531.994 30.967 531.554 30.703C531.122 30.4317 530.777 30.0577 530.52 29.581C530.271 29.097 530.146 28.5507 530.146 27.942C530.146 27.3333 530.271 26.7943 530.52 26.325C530.777 25.8557 531.122 25.4927 531.554 25.236C531.994 24.972 532.478 24.84 533.006 24.84ZM535.107 27.964C535.107 27.546 535.019 27.183 534.843 26.875C534.675 26.567 534.451 26.3323 534.172 26.171C533.894 26.0097 533.593 25.929 533.27 25.929C532.948 25.929 532.647 26.0097 532.368 26.171C532.09 26.325 531.862 26.556 531.686 26.864C531.518 27.1647 531.433 27.524 531.433 27.942C531.433 28.36 531.518 28.7267 531.686 29.042C531.862 29.3573 532.09 29.5993 532.368 29.768C532.654 29.9293 532.955 30.01 533.27 30.01C533.593 30.01 533.894 29.9293 534.172 29.768C534.451 29.6067 534.675 29.372 534.843 29.064C535.019 28.7487 535.107 28.382 535.107 27.964ZM538.657 24.136C538.43 24.136 538.239 24.059 538.085 23.905C537.931 23.751 537.854 23.5603 537.854 23.333C537.854 23.1057 537.931 22.915 538.085 22.761C538.239 22.607 538.43 22.53 538.657 22.53C538.877 22.53 539.064 22.607 539.218 22.761C539.372 22.915 539.449 23.1057 539.449 23.333C539.449 23.5603 539.372 23.751 539.218 23.905C539.064 24.059 538.877 24.136 538.657 24.136ZM539.273 24.939V31H538.019V24.939H539.273ZM543.12 31.099C542.643 31.099 542.214 31.0147 541.833 30.846C541.459 30.67 541.162 30.4353 540.942 30.142C540.722 29.8413 540.604 29.5077 540.59 29.141H541.888C541.91 29.3977 542.031 29.614 542.251 29.79C542.478 29.9587 542.76 30.043 543.098 30.043C543.45 30.043 543.721 29.977 543.912 29.845C544.11 29.7057 544.209 29.5297 544.209 29.317C544.209 29.0897 544.099 28.921 543.879 28.811C543.666 28.701 543.325 28.58 542.856 28.448C542.401 28.3233 542.031 28.2023 541.745 28.085C541.459 27.9677 541.209 27.788 540.997 27.546C540.791 27.304 540.689 26.985 540.689 26.589C540.689 26.2663 540.784 25.973 540.975 25.709C541.165 25.4377 541.437 25.225 541.789 25.071C542.148 24.917 542.559 24.84 543.021 24.84C543.71 24.84 544.264 25.016 544.682 25.368C545.107 25.7127 545.334 26.1857 545.364 26.787H544.11C544.088 26.5157 543.978 26.2993 543.78 26.138C543.582 25.9767 543.314 25.896 542.977 25.896C542.647 25.896 542.394 25.9583 542.218 26.083C542.042 26.2077 541.954 26.3727 541.954 26.578C541.954 26.7393 542.012 26.875 542.13 26.985C542.247 27.095 542.39 27.183 542.559 27.249C542.727 27.3077 542.977 27.3847 543.307 27.48C543.747 27.5973 544.106 27.7183 544.385 27.843C544.671 27.9603 544.916 28.1363 545.122 28.371C545.327 28.6057 545.433 28.9173 545.441 29.306C545.441 29.6507 545.345 29.9587 545.155 30.23C544.964 30.5013 544.693 30.714 544.341 30.868C543.996 31.022 543.589 31.099 543.12 31.099ZM548.259 25.962V29.317C548.259 29.5443 548.31 29.7093 548.413 29.812C548.523 29.9073 548.706 29.955 548.963 29.955H549.733V31H548.743C548.178 31 547.745 30.868 547.445 30.604C547.144 30.34 546.994 29.911 546.994 29.317V25.962H546.279V24.939H546.994V23.432H548.259V24.939H549.733V25.962H548.259ZM556.443 27.821C556.443 28.0483 556.429 28.2537 556.399 28.437H551.768C551.805 28.921 551.985 29.3097 552.307 29.603C552.63 29.8963 553.026 30.043 553.495 30.043C554.17 30.043 554.647 29.7607 554.925 29.196H556.278C556.095 29.7533 555.761 30.2117 555.277 30.571C554.801 30.923 554.207 31.099 553.495 31.099C552.916 31.099 552.395 30.9707 551.933 30.714C551.479 30.45 551.119 30.0833 550.855 29.614C550.599 29.1373 550.47 28.5873 550.47 27.964C550.47 27.3407 550.595 26.7943 550.844 26.325C551.101 25.8483 551.457 25.4817 551.911 25.225C552.373 24.9683 552.901 24.84 553.495 24.84C554.067 24.84 554.577 24.9647 555.024 25.214C555.472 25.4633 555.82 25.8153 556.069 26.27C556.319 26.7173 556.443 27.2343 556.443 27.821ZM555.134 27.425C555.127 26.963 554.962 26.5927 554.639 26.314C554.317 26.0353 553.917 25.896 553.44 25.896C553.008 25.896 552.637 26.0353 552.329 26.314C552.021 26.5853 551.838 26.9557 551.779 27.425H555.134ZM558.932 25.819C559.115 25.511 559.357 25.2727 559.658 25.104C559.966 24.928 560.329 24.84 560.747 24.84V26.138H560.428C559.936 26.138 559.562 26.2627 559.306 26.512C559.056 26.7613 558.932 27.194 558.932 27.81V31H557.678V24.939H558.932V25.819ZM571.038 31H569.784L566.011 25.291V31H564.757V23.344H566.011L569.784 29.042V23.344H571.038V31ZM575.313 31.099C574.741 31.099 574.224 30.9707 573.762 30.714C573.3 30.45 572.937 30.0833 572.673 29.614C572.409 29.1373 572.277 28.5873 572.277 27.964C572.277 27.348 572.413 26.8017 572.684 26.325C572.956 25.8483 573.326 25.4817 573.795 25.225C574.265 24.9683 574.789 24.84 575.368 24.84C575.948 24.84 576.472 24.9683 576.941 25.225C577.411 25.4817 577.781 25.8483 578.052 26.325C578.324 26.8017 578.459 27.348 578.459 27.964C578.459 28.58 578.32 29.1263 578.041 29.603C577.763 30.0797 577.381 30.45 576.897 30.714C576.421 30.9707 575.893 31.099 575.313 31.099ZM575.313 30.01C575.636 30.01 575.937 29.933 576.215 29.779C576.501 29.625 576.732 29.394 576.908 29.086C577.084 28.778 577.172 28.404 577.172 27.964C577.172 27.524 577.088 27.1537 576.919 26.853C576.751 26.545 576.527 26.314 576.248 26.16C575.97 26.006 575.669 25.929 575.346 25.929C575.024 25.929 574.723 26.006 574.444 26.16C574.173 26.314 573.957 26.545 573.795 26.853C573.634 27.1537 573.553 27.524 573.553 27.964C573.553 28.6167 573.718 29.1227 574.048 29.482C574.386 29.834 574.807 30.01 575.313 30.01ZM587.839 24.939L585.958 31H584.638L583.417 26.523L582.196 31H580.876L578.984 24.939H580.26L581.525 29.812L582.812 24.939H584.121L585.353 29.79L586.607 24.939H587.839Z" fill="#D6D6D6"/>
<rect x="616" y="22.5" width="10" height="10" rx="5" fill="#DC4743"/>
<path d="M657.344 31.077C656.831 31.077 656.369 30.989 655.958 30.813C655.547 30.6297 655.225 30.373 654.99 30.043C654.755 29.713 654.638 29.328 654.638 28.888H655.98C656.009 29.218 656.138 29.4893 656.365 29.702C656.6 29.9147 656.926 30.021 657.344 30.021C657.777 30.021 658.114 29.9183 658.356 29.713C658.598 29.5003 658.719 29.229 658.719 28.899C658.719 28.6423 658.642 28.4333 658.488 28.272C658.341 28.1107 658.154 27.986 657.927 27.898C657.707 27.81 657.399 27.7147 657.003 27.612C656.504 27.48 656.097 27.348 655.782 27.216C655.474 27.0767 655.21 26.864 654.99 26.578C654.77 26.292 654.66 25.9107 654.66 25.434C654.66 24.994 654.77 24.609 654.99 24.279C655.21 23.949 655.518 23.696 655.914 23.52C656.31 23.344 656.768 23.256 657.289 23.256C658.03 23.256 658.635 23.443 659.104 23.817C659.581 24.1837 659.845 24.6897 659.896 25.335H658.51C658.488 25.0563 658.356 24.818 658.114 24.62C657.872 24.422 657.553 24.323 657.157 24.323C656.798 24.323 656.504 24.4147 656.277 24.598C656.05 24.7813 655.936 25.0453 655.936 25.39C655.936 25.6247 656.006 25.819 656.145 25.973C656.292 26.1197 656.475 26.237 656.695 26.325C656.915 26.413 657.216 26.5083 657.597 26.611C658.103 26.7503 658.514 26.8897 658.829 27.029C659.152 27.1683 659.423 27.3847 659.643 27.678C659.87 27.964 659.984 28.349 659.984 28.833C659.984 29.2217 659.878 29.5883 659.665 29.933C659.46 30.2777 659.155 30.5563 658.752 30.769C658.356 30.9743 657.887 31.077 657.344 31.077ZM667.019 27.821C667.019 28.0483 667.004 28.2537 666.975 28.437H662.344C662.38 28.921 662.56 29.3097 662.883 29.603C663.205 29.8963 663.601 30.043 664.071 30.043C664.745 30.043 665.222 29.7607 665.501 29.196H666.854C666.67 29.7533 666.337 30.2117 665.853 30.571C665.376 30.923 664.782 31.099 664.071 31.099C663.491 31.099 662.971 30.9707 662.509 30.714C662.054 30.45 661.695 30.0833 661.431 29.614C661.174 29.1373 661.046 28.5873 661.046 27.964C661.046 27.3407 661.17 26.7943 661.42 26.325C661.676 25.8483 662.032 25.4817 662.487 25.225C662.949 24.9683 663.477 24.84 664.071 24.84C664.643 24.84 665.152 24.9647 665.6 25.214C666.047 25.4633 666.395 25.8153 666.645 26.27C666.894 26.7173 667.019 27.2343 667.019 27.821ZM665.71 27.425C665.702 26.963 665.537 26.5927 665.215 26.314C664.892 26.0353 664.492 25.896 664.016 25.896C663.583 25.896 663.213 26.0353 662.905 26.314C662.597 26.5853 662.413 26.9557 662.355 27.425H665.71ZM667.835 27.964C667.835 27.3407 667.959 26.7943 668.209 26.325C668.465 25.8483 668.817 25.4817 669.265 25.225C669.712 24.9683 670.225 24.84 670.805 24.84C671.538 24.84 672.143 25.016 672.62 25.368C673.104 25.7127 673.43 26.2077 673.599 26.853H672.246C672.136 26.5523 671.96 26.3177 671.718 26.149C671.476 25.9803 671.171 25.896 670.805 25.896C670.291 25.896 669.881 26.0793 669.573 26.446C669.272 26.8053 669.122 27.3113 669.122 27.964C669.122 28.6167 669.272 29.1263 669.573 29.493C669.881 29.8597 670.291 30.043 670.805 30.043C671.531 30.043 672.011 29.724 672.246 29.086H673.599C673.423 29.702 673.093 30.1933 672.609 30.56C672.125 30.9193 671.523 31.099 670.805 31.099C670.225 31.099 669.712 30.9707 669.265 30.714C668.817 30.45 668.465 30.0833 668.209 29.614C667.959 29.1373 667.835 28.5873 667.835 27.964ZM680.337 24.939V31H679.083V30.285C678.885 30.5343 678.625 30.7323 678.302 30.879C677.987 31.0183 677.65 31.088 677.29 31.088C676.814 31.088 676.385 30.989 676.003 30.791C675.629 30.593 675.332 30.2997 675.112 29.911C674.9 29.5223 674.793 29.053 674.793 28.503V24.939H676.036V28.316C676.036 28.8587 676.172 29.2767 676.443 29.57C676.715 29.856 677.085 29.999 677.554 29.999C678.024 29.999 678.394 29.856 678.665 29.57C678.944 29.2767 679.083 28.8587 679.083 28.316V24.939H680.337ZM683.246 25.819C683.429 25.511 683.671 25.2727 683.972 25.104C684.28 24.928 684.643 24.84 685.061 24.84V26.138H684.742C684.251 26.138 683.877 26.2627 683.62 26.512C683.371 26.7613 683.246 27.194 683.246 27.81V31H681.992V24.939H683.246V25.819ZM691.769 27.821C691.769 28.0483 691.754 28.2537 691.725 28.437H687.094C687.13 28.921 687.31 29.3097 687.633 29.603C687.955 29.8963 688.351 30.043 688.821 30.043C689.495 30.043 689.972 29.7607 690.251 29.196H691.604C691.42 29.7533 691.087 30.2117 690.603 30.571C690.126 30.923 689.532 31.099 688.821 31.099C688.241 31.099 687.721 30.9707 687.259 30.714C686.804 30.45 686.445 30.0833 686.181 29.614C685.924 29.1373 685.796 28.5873 685.796 27.964C685.796 27.3407 685.92 26.7943 686.17 26.325C686.426 25.8483 686.782 25.4817 687.237 25.225C687.699 24.9683 688.227 24.84 688.821 24.84C689.393 24.84 689.902 24.9647 690.35 25.214C690.797 25.4633 691.145 25.8153 691.395 26.27C691.644 26.7173 691.769 27.2343 691.769 27.821ZM690.46 27.425C690.452 26.963 690.287 26.5927 689.965 26.314C689.642 26.0353 689.242 25.896 688.766 25.896C688.333 25.896 687.963 26.0353 687.655 26.314C687.347 26.5853 687.163 26.9557 687.105 27.425H690.46ZM704.174 24.939L700.456 33.849H699.158L700.39 30.901L698.003 24.939H699.4L701.105 29.559L702.876 24.939H704.174ZM707.749 31.099C707.177 31.099 706.66 30.9707 706.198 30.714C705.736 30.45 705.373 30.0833 705.109 29.614C704.845 29.1373 704.713 28.5873 704.713 27.964C704.713 27.348 704.849 26.8017 705.12 26.325C705.391 25.8483 705.762 25.4817 706.231 25.225C706.7 24.9683 707.225 24.84 707.804 24.84C708.383 24.84 708.908 24.9683 709.377 25.225C709.846 25.4817 710.217 25.8483 710.488 26.325C710.759 26.8017 710.895 27.348 710.895 27.964C710.895 28.58 710.756 29.1263 710.477 29.603C710.198 30.0797 709.817 30.45 709.333 30.714C708.856 30.9707 708.328 31.099 707.749 31.099ZM707.749 30.01C708.072 30.01 708.372 29.933 708.651 29.779C708.937 29.625 709.168 29.394 709.344 29.086C709.52 28.778 709.608 28.404 709.608 27.964C709.608 27.524 709.524 27.1537 709.355 26.853C709.186 26.545 708.963 26.314 708.684 26.16C708.405 26.006 708.105 25.929 707.782 25.929C707.459 25.929 707.159 26.006 706.88 26.16C706.609 26.314 706.392 26.545 706.231 26.853C706.07 27.1537 705.989 27.524 705.989 27.964C705.989 28.6167 706.154 29.1227 706.484 29.482C706.821 29.834 707.243 30.01 707.749 30.01ZM717.624 24.939V31H716.37V30.285C716.172 30.5343 715.911 30.7323 715.589 30.879C715.273 31.0183 714.936 31.088 714.577 31.088C714.1 31.088 713.671 30.989 713.29 30.791C712.916 30.593 712.619 30.2997 712.399 29.911C712.186 29.5223 712.08 29.053 712.08 28.503V24.939H713.323V28.316C713.323 28.8587 713.458 29.2767 713.73 29.57C714.001 29.856 714.371 29.999 714.841 29.999C715.31 29.999 715.68 29.856 715.952 29.57C716.23 29.2767 716.37 28.8587 716.37 28.316V24.939H717.624ZM720.532 25.819C720.715 25.511 720.957 25.2727 721.258 25.104C721.566 24.928 721.929 24.84 722.347 24.84V26.138H722.028C721.537 26.138 721.163 26.2627 720.906 26.512C720.657 26.7613 720.532 27.194 720.532 27.81V31H719.278V24.939H720.532V25.819ZM728.557 31.099C728.081 31.099 727.652 31.0147 727.27 30.846C726.896 30.67 726.599 30.4353 726.379 30.142C726.159 29.8413 726.042 29.5077 726.027 29.141H727.325C727.347 29.3977 727.468 29.614 727.688 29.79C727.916 29.9587 728.198 30.043 728.535 30.043C728.887 30.043 729.159 29.977 729.349 29.845C729.547 29.7057 729.646 29.5297 729.646 29.317C729.646 29.0897 729.536 28.921 729.316 28.811C729.104 28.701 728.763 28.58 728.293 28.448C727.839 28.3233 727.468 28.2023 727.182 28.085C726.896 27.9677 726.647 27.788 726.434 27.546C726.229 27.304 726.126 26.985 726.126 26.589C726.126 26.2663 726.222 25.973 726.412 25.709C726.603 25.4377 726.874 25.225 727.226 25.071C727.586 24.917 727.996 24.84 728.458 24.84C729.148 24.84 729.701 25.016 730.119 25.368C730.545 25.7127 730.772 26.1857 730.801 26.787H729.547C729.525 26.5157 729.415 26.2993 729.217 26.138C729.019 25.9767 728.752 25.896 728.414 25.896C728.084 25.896 727.831 25.9583 727.655 26.083C727.479 26.2077 727.391 26.3727 727.391 26.578C727.391 26.7393 727.45 26.875 727.567 26.985C727.685 27.095 727.828 27.183 727.996 27.249C728.165 27.3077 728.414 27.3847 728.744 27.48C729.184 27.5973 729.544 27.7183 729.822 27.843C730.108 27.9603 730.354 28.1363 730.559 28.371C730.765 28.6057 730.871 28.9173 730.878 29.306C730.878 29.6507 730.783 29.9587 730.592 30.23C730.402 30.5013 730.13 30.714 729.778 30.868C729.434 31.022 729.027 31.099 728.557 31.099ZM733.487 22.86V31H732.233V22.86H733.487ZM737.763 31.099C737.191 31.099 736.674 30.9707 736.212 30.714C735.75 30.45 735.387 30.0833 735.123 29.614C734.859 29.1373 734.727 28.5873 734.727 27.964C734.727 27.348 734.862 26.8017 735.134 26.325C735.405 25.8483 735.775 25.4817 736.245 25.225C736.714 24.9683 737.238 24.84 737.818 24.84C738.397 24.84 738.921 24.9683 739.391 25.225C739.86 25.4817 740.23 25.8483 740.502 26.325C740.773 26.8017 740.909 27.348 740.909 27.964C740.909 28.58 740.769 29.1263 740.491 29.603C740.212 30.0797 739.831 30.45 739.347 30.714C738.87 30.9707 738.342 31.099 737.763 31.099ZM737.763 30.01C738.085 30.01 738.386 29.933 738.665 29.779C738.951 29.625 739.182 29.394 739.358 29.086C739.534 28.778 739.622 28.404 739.622 27.964C739.622 27.524 739.537 27.1537 739.369 26.853C739.2 26.545 738.976 26.314 738.698 26.16C738.419 26.006 738.118 25.929 737.796 25.929C737.473 25.929 737.172 26.006 736.894 26.16C736.622 26.314 736.406 26.545 736.245 26.853C736.083 27.1537 736.003 27.524 736.003 27.964C736.003 28.6167 736.168 29.1227 736.498 29.482C736.835 29.834 737.257 30.01 737.763 30.01ZM743.611 25.962V29.317C743.611 29.5443 743.663 29.7093 743.765 29.812C743.875 29.9073 744.059 29.955 744.315 29.955H745.085V31H744.095C743.531 31 743.098 30.868 742.797 30.604C742.497 30.34 742.346 29.911 742.346 29.317V25.962H741.631V24.939H742.346V23.432H743.611V24.939H745.085V25.962H743.611Z" fill="#D6D6D6"/>
<rect x="774" y="22.5" width="10" height="10" rx="5" fill="#DC4743"/>
<path d="M817.764 23.355V24.378H815.729V31H814.475V24.378H812.429V23.355H817.764ZM823.126 27.073C823.537 27.1463 823.885 27.3627 824.171 27.722C824.457 28.0813 824.6 28.4883 824.6 28.943C824.6 29.3317 824.497 29.6837 824.292 29.999C824.094 30.307 823.804 30.5527 823.423 30.736C823.042 30.912 822.598 31 822.092 31H819.034V23.355H821.949C822.47 23.355 822.917 23.443 823.291 23.619C823.665 23.795 823.947 24.0333 824.138 24.334C824.329 24.6273 824.424 24.9573 824.424 25.324C824.424 25.764 824.307 26.1307 824.072 26.424C823.837 26.7173 823.522 26.9337 823.126 27.073ZM820.288 26.567H821.839C822.25 26.567 822.569 26.4753 822.796 26.292C823.031 26.1013 823.148 25.83 823.148 25.478C823.148 25.1333 823.031 24.8657 822.796 24.675C822.569 24.477 822.25 24.378 821.839 24.378H820.288V26.567ZM821.982 29.977C822.407 29.977 822.741 29.8743 822.983 29.669C823.225 29.4637 823.346 29.1777 823.346 28.811C823.346 28.437 823.218 28.14 822.961 27.92C822.704 27.7 822.363 27.59 821.938 27.59H820.288V29.977H821.982ZM827.217 29.988H829.802V31H825.963V23.355H827.217V29.988ZM837.8 27.073C838.21 27.1463 838.559 27.3627 838.845 27.722C839.131 28.0813 839.274 28.4883 839.274 28.943C839.274 29.3317 839.171 29.6837 838.966 29.999C838.768 30.307 838.478 30.5527 838.097 30.736C837.715 30.912 837.272 31 836.766 31H833.708V23.355H836.623C837.143 23.355 837.591 23.443 837.965 23.619C838.339 23.795 838.621 24.0333 838.812 24.334C839.002 24.6273 839.098 24.9573 839.098 25.324C839.098 25.764 838.98 26.1307 838.746 26.424C838.511 26.7173 838.196 26.9337 837.8 27.073ZM834.962 26.567H836.513C836.923 26.567 837.242 26.4753 837.47 26.292C837.704 26.1013 837.822 25.83 837.822 25.478C837.822 25.1333 837.704 24.8657 837.47 24.675C837.242 24.477 836.923 24.378 836.513 24.378H834.962V26.567ZM836.656 29.977C837.081 29.977 837.415 29.8743 837.657 29.669C837.899 29.4637 838.02 29.1777 838.02 28.811C838.02 28.437 837.891 28.14 837.635 27.92C837.378 27.7 837.037 27.59 836.612 27.59H834.962V29.977H836.656ZM840.219 27.942C840.219 27.3333 840.343 26.7943 840.593 26.325C840.849 25.8557 841.194 25.4927 841.627 25.236C842.067 24.972 842.551 24.84 843.079 24.84C843.555 24.84 843.97 24.9353 844.322 25.126C844.681 25.3093 844.967 25.5403 845.18 25.819V24.939H846.445V31H845.18V30.098C844.967 30.384 844.677 30.6223 844.311 30.813C843.944 31.0037 843.526 31.099 843.057 31.099C842.536 31.099 842.059 30.967 841.627 30.703C841.194 30.4317 840.849 30.0577 840.593 29.581C840.343 29.097 840.219 28.5507 840.219 27.942ZM845.18 27.964C845.18 27.546 845.092 27.183 844.916 26.875C844.747 26.567 844.523 26.3323 844.245 26.171C843.966 26.0097 843.665 25.929 843.343 25.929C843.02 25.929 842.719 26.0097 842.441 26.171C842.162 26.325 841.935 26.556 841.759 26.864C841.59 27.1647 841.506 27.524 841.506 27.942C841.506 28.36 841.59 28.7267 841.759 29.042C841.935 29.3573 842.162 29.5993 842.441 29.768C842.727 29.9293 843.027 30.01 843.343 30.01C843.665 30.01 843.966 29.9293 844.245 29.768C844.523 29.6067 844.747 29.372 844.916 29.064C845.092 28.7487 845.18 28.382 845.18 27.964ZM850.292 31.099C849.815 31.099 849.386 31.0147 849.005 30.846C848.631 30.67 848.334 30.4353 848.114 30.142C847.894 29.8413 847.776 29.5077 847.762 29.141H849.06C849.082 29.3977 849.203 29.614 849.423 29.79C849.65 29.9587 849.932 30.043 850.27 30.043C850.622 30.043 850.893 29.977 851.084 29.845C851.282 29.7057 851.381 29.5297 851.381 29.317C851.381 29.0897 851.271 28.921 851.051 28.811C850.838 28.701 850.497 28.58 850.028 28.448C849.573 28.3233 849.203 28.2023 848.917 28.085C848.631 27.9677 848.381 27.788 848.169 27.546C847.963 27.304 847.861 26.985 847.861 26.589C847.861 26.2663 847.956 25.973 848.147 25.709C848.337 25.4377 848.609 25.225 848.961 25.071C849.32 24.917 849.731 24.84 850.193 24.84C850.882 24.84 851.436 25.016 851.854 25.368C852.279 25.7127 852.506 26.1857 852.536 26.787H851.282C851.26 26.5157 851.15 26.2993 850.952 26.138C850.754 25.9767 850.486 25.896 850.149 25.896C849.819 25.896 849.566 25.9583 849.39 26.083C849.214 26.2077 849.126 26.3727 849.126 26.578C849.126 26.7393 849.184 26.875 849.302 26.985C849.419 27.095 849.562 27.183 849.731 27.249C849.899 27.3077 850.149 27.3847 850.479 27.48C850.919 27.5973 851.278 27.7183 851.557 27.843C851.843 27.9603 852.088 28.1363 852.294 28.371C852.499 28.6057 852.605 28.9173 852.613 29.306C852.613 29.6507 852.517 29.9587 852.327 30.23C852.136 30.5013 851.865 30.714 851.513 30.868C851.168 31.022 850.761 31.099 850.292 31.099ZM856.366 27.975L859.16 31H857.466L855.222 28.393V31H853.968V22.86H855.222V27.59L857.422 24.939H859.16L856.366 27.975ZM865.613 27.821C865.613 28.0483 865.599 28.2537 865.569 28.437H860.938C860.975 28.921 861.155 29.3097 861.477 29.603C861.8 29.8963 862.196 30.043 862.665 30.043C863.34 30.043 863.817 29.7607 864.095 29.196H865.448C865.265 29.7533 864.931 30.2117 864.447 30.571C863.971 30.923 863.377 31.099 862.665 31.099C862.086 31.099 861.565 30.9707 861.103 30.714C860.649 30.45 860.289 30.0833 860.025 29.614C859.769 29.1373 859.64 28.5873 859.64 27.964C859.64 27.3407 859.765 26.7943 860.014 26.325C860.271 25.8483 860.627 25.4817 861.081 25.225C861.543 24.9683 862.071 24.84 862.665 24.84C863.237 24.84 863.747 24.9647 864.194 25.214C864.642 25.4633 864.99 25.8153 865.239 26.27C865.489 26.7173 865.613 27.2343 865.613 27.821ZM864.304 27.425C864.297 26.963 864.132 26.5927 863.809 26.314C863.487 26.0353 863.087 25.896 862.61 25.896C862.178 25.896 861.807 26.0353 861.499 26.314C861.191 26.5853 861.008 26.9557 860.949 27.425H864.304ZM868.31 25.962V29.317C868.31 29.5443 868.362 29.7093 868.464 29.812C868.574 29.9073 868.758 29.955 869.014 29.955H869.784V31H868.794C868.23 31 867.797 30.868 867.496 30.604C867.196 30.34 867.045 29.911 867.045 29.317V25.962H866.33V24.939H867.045V23.432H868.31V24.939H869.784V25.962H868.31ZM872.194 25.841C872.407 25.5477 872.697 25.3093 873.063 25.126C873.437 24.9353 873.852 24.84 874.306 24.84C874.842 24.84 875.326 24.9683 875.758 25.225C876.191 25.4817 876.532 25.8483 876.781 26.325C877.031 26.7943 877.155 27.3333 877.155 27.942C877.155 28.5507 877.031 29.097 876.781 29.581C876.532 30.0577 876.187 30.4317 875.747 30.703C875.315 30.967 874.834 31.099 874.306 31.099C873.837 31.099 873.419 31.0073 873.052 30.824C872.693 30.6407 872.407 30.406 872.194 30.12V31H870.94V22.86H872.194V25.841ZM875.879 27.942C875.879 27.524 875.791 27.1647 875.615 26.864C875.447 26.556 875.219 26.325 874.933 26.171C874.655 26.0097 874.354 25.929 874.031 25.929C873.716 25.929 873.415 26.0097 873.129 26.171C872.851 26.3323 872.623 26.567 872.447 26.875C872.279 27.183 872.194 27.546 872.194 27.964C872.194 28.382 872.279 28.7487 872.447 29.064C872.623 29.372 872.851 29.6067 873.129 29.768C873.415 29.9293 873.716 30.01 874.031 30.01C874.354 30.01 874.655 29.9293 874.933 29.768C875.219 29.5993 875.447 29.3573 875.615 29.042C875.791 28.7267 875.879 28.36 875.879 27.942ZM877.977 27.942C877.977 27.3333 878.102 26.7943 878.351 26.325C878.608 25.8557 878.953 25.4927 879.385 25.236C879.825 24.972 880.309 24.84 880.837 24.84C881.314 24.84 881.728 24.9353 882.08 25.126C882.44 25.3093 882.726 25.5403 882.938 25.819V24.939H884.203V31H882.938V30.098C882.726 30.384 882.436 30.6223 882.069 30.813C881.703 31.0037 881.285 31.099 880.815 31.099C880.295 31.099 879.818 30.967 879.385 30.703C878.953 30.4317 878.608 30.0577 878.351 29.581C878.102 29.097 877.977 28.5507 877.977 27.942ZM882.938 27.964C882.938 27.546 882.85 27.183 882.674 26.875C882.506 26.567 882.282 26.3323 882.003 26.171C881.725 26.0097 881.424 25.929 881.101 25.929C880.779 25.929 880.478 26.0097 880.199 26.171C879.921 26.325 879.693 26.556 879.517 26.864C879.349 27.1647 879.264 27.524 879.264 27.942C879.264 28.36 879.349 28.7267 879.517 29.042C879.693 29.3573 879.921 29.5993 880.199 29.768C880.485 29.9293 880.786 30.01 881.101 30.01C881.424 30.01 881.725 29.9293 882.003 29.768C882.282 29.6067 882.506 29.372 882.674 29.064C882.85 28.7487 882.938 28.382 882.938 27.964ZM887.104 22.86V31H885.85V22.86H887.104ZM890.005 22.86V31H888.751V22.86H890.005Z" fill="#D6D6D6"/>
<rect x="919" y="22.5" width="10" height="10" rx="5" fill="#DC4743"/>
<path d="M961.796 31L960.036 27.942H959.079V31H957.825V23.355H960.465C961.052 23.355 961.547 23.4577 961.95 23.663C962.361 23.8683 962.665 24.1433 962.863 24.488C963.068 24.8327 963.171 25.2177 963.171 25.643C963.171 26.1417 963.024 26.5963 962.731 27.007C962.445 27.4103 962.001 27.6853 961.4 27.832L963.292 31H961.796ZM959.079 26.941H960.465C960.934 26.941 961.286 26.8237 961.521 26.589C961.763 26.3543 961.884 26.039 961.884 25.643C961.884 25.247 961.767 24.939 961.532 24.719C961.297 24.4917 960.942 24.378 960.465 24.378H959.079V26.941ZM970.33 27.821C970.33 28.0483 970.316 28.2537 970.286 28.437H965.655C965.692 28.921 965.872 29.3097 966.194 29.603C966.517 29.8963 966.913 30.043 967.382 30.043C968.057 30.043 968.534 29.7607 968.812 29.196H970.165C969.982 29.7533 969.648 30.2117 969.164 30.571C968.688 30.923 968.094 31.099 967.382 31.099C966.803 31.099 966.282 30.9707 965.82 30.714C965.366 30.45 965.006 30.0833 964.742 29.614C964.486 29.1373 964.357 28.5873 964.357 27.964C964.357 27.3407 964.482 26.7943 964.731 26.325C964.988 25.8483 965.344 25.4817 965.798 25.225C966.26 24.9683 966.788 24.84 967.382 24.84C967.954 24.84 968.464 24.9647 968.911 25.214C969.359 25.4633 969.707 25.8153 969.956 26.27C970.206 26.7173 970.33 27.2343 970.33 27.821ZM969.021 27.425C969.014 26.963 968.849 26.5927 968.526 26.314C968.204 26.0353 967.804 25.896 967.327 25.896C966.895 25.896 966.524 26.0353 966.216 26.314C965.908 26.5853 965.725 26.9557 965.666 27.425H969.021ZM974.006 24.84C974.476 24.84 974.89 24.9353 975.249 25.126C975.616 25.3093 975.902 25.5403 976.107 25.819V24.939H977.372V31.099C977.372 31.6563 977.255 32.1513 977.02 32.584C976.786 33.024 976.445 33.3687 975.997 33.618C975.557 33.8673 975.029 33.992 974.413 33.992C973.592 33.992 972.91 33.7977 972.367 33.409C971.825 33.0277 971.517 32.507 971.443 31.847H972.686C972.782 32.1623 972.983 32.4153 973.291 32.606C973.607 32.804 973.981 32.903 974.413 32.903C974.919 32.903 975.326 32.749 975.634 32.441C975.95 32.133 976.107 31.6857 976.107 31.099V30.087C975.895 30.373 975.605 30.615 975.238 30.813C974.879 31.0037 974.468 31.099 974.006 31.099C973.478 31.099 972.994 30.967 972.554 30.703C972.122 30.4317 971.777 30.0577 971.52 29.581C971.271 29.097 971.146 28.5507 971.146 27.942C971.146 27.3333 971.271 26.7943 971.52 26.325C971.777 25.8557 972.122 25.4927 972.554 25.236C972.994 24.972 973.478 24.84 974.006 24.84ZM976.107 27.964C976.107 27.546 976.019 27.183 975.843 26.875C975.675 26.567 975.451 26.3323 975.172 26.171C974.894 26.0097 974.593 25.929 974.27 25.929C973.948 25.929 973.647 26.0097 973.368 26.171C973.09 26.325 972.862 26.556 972.686 26.864C972.518 27.1647 972.433 27.524 972.433 27.942C972.433 28.36 972.518 28.7267 972.686 29.042C972.862 29.3573 973.09 29.5993 973.368 29.768C973.654 29.9293 973.955 30.01 974.27 30.01C974.593 30.01 974.894 29.9293 975.172 29.768C975.451 29.6067 975.675 29.372 975.843 29.064C976.019 28.7487 976.107 28.382 976.107 27.964ZM979.657 24.136C979.43 24.136 979.239 24.059 979.085 23.905C978.931 23.751 978.854 23.5603 978.854 23.333C978.854 23.1057 978.931 22.915 979.085 22.761C979.239 22.607 979.43 22.53 979.657 22.53C979.877 22.53 980.064 22.607 980.218 22.761C980.372 22.915 980.449 23.1057 980.449 23.333C980.449 23.5603 980.372 23.751 980.218 23.905C980.064 24.059 979.877 24.136 979.657 24.136ZM980.273 24.939V31H979.019V24.939H980.273ZM984.12 31.099C983.643 31.099 983.214 31.0147 982.833 30.846C982.459 30.67 982.162 30.4353 981.942 30.142C981.722 29.8413 981.604 29.5077 981.59 29.141H982.888C982.91 29.3977 983.031 29.614 983.251 29.79C983.478 29.9587 983.76 30.043 984.098 30.043C984.45 30.043 984.721 29.977 984.912 29.845C985.11 29.7057 985.209 29.5297 985.209 29.317C985.209 29.0897 985.099 28.921 984.879 28.811C984.666 28.701 984.325 28.58 983.856 28.448C983.401 28.3233 983.031 28.2023 982.745 28.085C982.459 27.9677 982.209 27.788 981.997 27.546C981.791 27.304 981.689 26.985 981.689 26.589C981.689 26.2663 981.784 25.973 981.975 25.709C982.165 25.4377 982.437 25.225 982.789 25.071C983.148 24.917 983.559 24.84 984.021 24.84C984.71 24.84 985.264 25.016 985.682 25.368C986.107 25.7127 986.334 26.1857 986.364 26.787H985.11C985.088 26.5157 984.978 26.2993 984.78 26.138C984.582 25.9767 984.314 25.896 983.977 25.896C983.647 25.896 983.394 25.9583 983.218 26.083C983.042 26.2077 982.954 26.3727 982.954 26.578C982.954 26.7393 983.012 26.875 983.13 26.985C983.247 27.095 983.39 27.183 983.559 27.249C983.727 27.3077 983.977 27.3847 984.307 27.48C984.747 27.5973 985.106 27.7183 985.385 27.843C985.671 27.9603 985.916 28.1363 986.122 28.371C986.327 28.6057 986.433 28.9173 986.441 29.306C986.441 29.6507 986.345 29.9587 986.155 30.23C985.964 30.5013 985.693 30.714 985.341 30.868C984.996 31.022 984.589 31.099 984.12 31.099ZM989.259 25.962V29.317C989.259 29.5443 989.31 29.7093 989.413 29.812C989.523 29.9073 989.706 29.955 989.963 29.955H990.733V31H989.743C989.178 31 988.745 30.868 988.445 30.604C988.144 30.34 987.994 29.911 987.994 29.317V25.962H987.279V24.939H987.994V23.432H989.259V24.939H990.733V25.962H989.259ZM997.443 27.821C997.443 28.0483 997.429 28.2537 997.399 28.437H992.768C992.805 28.921 992.985 29.3097 993.307 29.603C993.63 29.8963 994.026 30.043 994.495 30.043C995.17 30.043 995.647 29.7607 995.925 29.196H997.278C997.095 29.7533 996.761 30.2117 996.277 30.571C995.801 30.923 995.207 31.099 994.495 31.099C993.916 31.099 993.395 30.9707 992.933 30.714C992.479 30.45 992.119 30.0833 991.855 29.614C991.599 29.1373 991.47 28.5873 991.47 27.964C991.47 27.3407 991.595 26.7943 991.844 26.325C992.101 25.8483 992.457 25.4817 992.911 25.225C993.373 24.9683 993.901 24.84 994.495 24.84C995.067 24.84 995.577 24.9647 996.024 25.214C996.472 25.4633 996.82 25.8153 997.069 26.27C997.319 26.7173 997.443 27.2343 997.443 27.821ZM996.134 27.425C996.127 26.963 995.962 26.5927 995.639 26.314C995.317 26.0353 994.917 25.896 994.44 25.896C994.008 25.896 993.637 26.0353 993.329 26.314C993.021 26.5853 992.838 26.9557 992.779 27.425H996.134ZM999.932 25.819C1000.11 25.511 1000.36 25.2727 1000.66 25.104C1000.97 24.928 1001.33 24.84 1001.75 24.84V26.138H1001.43C1000.94 26.138 1000.56 26.2627 1000.31 26.512C1000.06 26.7613 999.932 27.194 999.932 27.81V31H998.678V24.939H999.932V25.819ZM1012.04 31H1010.78L1007.01 25.291V31H1005.76V23.344H1007.01L1010.78 29.042V23.344H1012.04V31ZM1016.31 31.099C1015.74 31.099 1015.22 30.9707 1014.76 30.714C1014.3 30.45 1013.94 30.0833 1013.67 29.614C1013.41 29.1373 1013.28 28.5873 1013.28 27.964C1013.28 27.348 1013.41 26.8017 1013.68 26.325C1013.96 25.8483 1014.33 25.4817 1014.8 25.225C1015.26 24.9683 1015.79 24.84 1016.37 24.84C1016.95 24.84 1017.47 24.9683 1017.94 25.225C1018.41 25.4817 1018.78 25.8483 1019.05 26.325C1019.32 26.8017 1019.46 27.348 1019.46 27.964C1019.46 28.58 1019.32 29.1263 1019.04 29.603C1018.76 30.0797 1018.38 30.45 1017.9 30.714C1017.42 30.9707 1016.89 31.099 1016.31 31.099ZM1016.31 30.01C1016.64 30.01 1016.94 29.933 1017.22 29.779C1017.5 29.625 1017.73 29.394 1017.91 29.086C1018.08 28.778 1018.17 28.404 1018.17 27.964C1018.17 27.524 1018.09 27.1537 1017.92 26.853C1017.75 26.545 1017.53 26.314 1017.25 26.16C1016.97 26.006 1016.67 25.929 1016.35 25.929C1016.02 25.929 1015.72 26.006 1015.44 26.16C1015.17 26.314 1014.96 26.545 1014.8 26.853C1014.63 27.1537 1014.55 27.524 1014.55 27.964C1014.55 28.6167 1014.72 29.1227 1015.05 29.482C1015.39 29.834 1015.81 30.01 1016.31 30.01ZM1028.84 24.939L1026.96 31H1025.64L1024.42 26.523L1023.2 31H1021.88L1019.98 24.939H1021.26L1022.53 29.812L1023.81 24.939H1025.12L1026.35 29.79L1027.61 24.939H1028.84Z" fill="#D6D6D6"/>
<rect x="1057" y="22.5" width="10" height="10" rx="5" fill="#DC4743"/>
<path d="M1098.34 31.077C1097.83 31.077 1097.37 30.989 1096.96 30.813C1096.55 30.6297 1096.22 30.373 1095.99 30.043C1095.76 29.713 1095.64 29.328 1095.64 28.888H1096.98C1097.01 29.218 1097.14 29.4893 1097.37 29.702C1097.6 29.9147 1097.93 30.021 1098.34 30.021C1098.78 30.021 1099.11 29.9183 1099.36 29.713C1099.6 29.5003 1099.72 29.229 1099.72 28.899C1099.72 28.6423 1099.64 28.4333 1099.49 28.272C1099.34 28.1107 1099.15 27.986 1098.93 27.898C1098.71 27.81 1098.4 27.7147 1098 27.612C1097.5 27.48 1097.1 27.348 1096.78 27.216C1096.47 27.0767 1096.21 26.864 1095.99 26.578C1095.77 26.292 1095.66 25.9107 1095.66 25.434C1095.66 24.994 1095.77 24.609 1095.99 24.279C1096.21 23.949 1096.52 23.696 1096.91 23.52C1097.31 23.344 1097.77 23.256 1098.29 23.256C1099.03 23.256 1099.63 23.443 1100.1 23.817C1100.58 24.1837 1100.84 24.6897 1100.9 25.335H1099.51C1099.49 25.0563 1099.36 24.818 1099.11 24.62C1098.87 24.422 1098.55 24.323 1098.16 24.323C1097.8 24.323 1097.5 24.4147 1097.28 24.598C1097.05 24.7813 1096.94 25.0453 1096.94 25.39C1096.94 25.6247 1097.01 25.819 1097.15 25.973C1097.29 26.1197 1097.48 26.237 1097.7 26.325C1097.92 26.413 1098.22 26.5083 1098.6 26.611C1099.1 26.7503 1099.51 26.8897 1099.83 27.029C1100.15 27.1683 1100.42 27.3847 1100.64 27.678C1100.87 27.964 1100.98 28.349 1100.98 28.833C1100.98 29.2217 1100.88 29.5883 1100.67 29.933C1100.46 30.2777 1100.16 30.5563 1099.75 30.769C1099.36 30.9743 1098.89 31.077 1098.34 31.077ZM1108.02 27.821C1108.02 28.0483 1108 28.2537 1107.97 28.437H1103.34C1103.38 28.921 1103.56 29.3097 1103.88 29.603C1104.21 29.8963 1104.6 30.043 1105.07 30.043C1105.75 30.043 1106.22 29.7607 1106.5 29.196H1107.85C1107.67 29.7533 1107.34 30.2117 1106.85 30.571C1106.38 30.923 1105.78 31.099 1105.07 31.099C1104.49 31.099 1103.97 30.9707 1103.51 30.714C1103.05 30.45 1102.69 30.0833 1102.43 29.614C1102.17 29.1373 1102.05 28.5873 1102.05 27.964C1102.05 27.3407 1102.17 26.7943 1102.42 26.325C1102.68 25.8483 1103.03 25.4817 1103.49 25.225C1103.95 24.9683 1104.48 24.84 1105.07 24.84C1105.64 24.84 1106.15 24.9647 1106.6 25.214C1107.05 25.4633 1107.4 25.8153 1107.64 26.27C1107.89 26.7173 1108.02 27.2343 1108.02 27.821ZM1106.71 27.425C1106.7 26.963 1106.54 26.5927 1106.21 26.314C1105.89 26.0353 1105.49 25.896 1105.02 25.896C1104.58 25.896 1104.21 26.0353 1103.9 26.314C1103.6 26.5853 1103.41 26.9557 1103.35 27.425H1106.71ZM1108.83 27.964C1108.83 27.3407 1108.96 26.7943 1109.21 26.325C1109.47 25.8483 1109.82 25.4817 1110.26 25.225C1110.71 24.9683 1111.23 24.84 1111.8 24.84C1112.54 24.84 1113.14 25.016 1113.62 25.368C1114.1 25.7127 1114.43 26.2077 1114.6 26.853H1113.25C1113.14 26.5523 1112.96 26.3177 1112.72 26.149C1112.48 25.9803 1112.17 25.896 1111.8 25.896C1111.29 25.896 1110.88 26.0793 1110.57 26.446C1110.27 26.8053 1110.12 27.3113 1110.12 27.964C1110.12 28.6167 1110.27 29.1263 1110.57 29.493C1110.88 29.8597 1111.29 30.043 1111.8 30.043C1112.53 30.043 1113.01 29.724 1113.25 29.086H1114.6C1114.42 29.702 1114.09 30.1933 1113.61 30.56C1113.12 30.9193 1112.52 31.099 1111.8 31.099C1111.23 31.099 1110.71 30.9707 1110.26 30.714C1109.82 30.45 1109.47 30.0833 1109.21 29.614C1108.96 29.1373 1108.83 28.5873 1108.83 27.964ZM1121.34 24.939V31H1120.08V30.285C1119.89 30.5343 1119.63 30.7323 1119.3 30.879C1118.99 31.0183 1118.65 31.088 1118.29 31.088C1117.81 31.088 1117.38 30.989 1117 30.791C1116.63 30.593 1116.33 30.2997 1116.11 29.911C1115.9 29.5223 1115.79 29.053 1115.79 28.503V24.939H1117.04V28.316C1117.04 28.8587 1117.17 29.2767 1117.44 29.57C1117.71 29.856 1118.09 29.999 1118.55 29.999C1119.02 29.999 1119.39 29.856 1119.67 29.57C1119.94 29.2767 1120.08 28.8587 1120.08 28.316V24.939H1121.34ZM1124.25 25.819C1124.43 25.511 1124.67 25.2727 1124.97 25.104C1125.28 24.928 1125.64 24.84 1126.06 24.84V26.138H1125.74C1125.25 26.138 1124.88 26.2627 1124.62 26.512C1124.37 26.7613 1124.25 27.194 1124.25 27.81V31H1122.99V24.939H1124.25V25.819ZM1132.77 27.821C1132.77 28.0483 1132.75 28.2537 1132.72 28.437H1128.09C1128.13 28.921 1128.31 29.3097 1128.63 29.603C1128.96 29.8963 1129.35 30.043 1129.82 30.043C1130.5 30.043 1130.97 29.7607 1131.25 29.196H1132.6C1132.42 29.7533 1132.09 30.2117 1131.6 30.571C1131.13 30.923 1130.53 31.099 1129.82 31.099C1129.24 31.099 1128.72 30.9707 1128.26 30.714C1127.8 30.45 1127.44 30.0833 1127.18 29.614C1126.92 29.1373 1126.8 28.5873 1126.8 27.964C1126.8 27.3407 1126.92 26.7943 1127.17 26.325C1127.43 25.8483 1127.78 25.4817 1128.24 25.225C1128.7 24.9683 1129.23 24.84 1129.82 24.84C1130.39 24.84 1130.9 24.9647 1131.35 25.214C1131.8 25.4633 1132.15 25.8153 1132.39 26.27C1132.64 26.7173 1132.77 27.2343 1132.77 27.821ZM1131.46 27.425C1131.45 26.963 1131.29 26.5927 1130.96 26.314C1130.64 26.0353 1130.24 25.896 1129.77 25.896C1129.33 25.896 1128.96 26.0353 1128.65 26.314C1128.35 26.5853 1128.16 26.9557 1128.1 27.425H1131.46ZM1145.17 24.939L1141.46 33.849H1140.16L1141.39 30.901L1139 24.939H1140.4L1142.1 29.559L1143.88 24.939H1145.17ZM1148.75 31.099C1148.18 31.099 1147.66 30.9707 1147.2 30.714C1146.74 30.45 1146.37 30.0833 1146.11 29.614C1145.84 29.1373 1145.71 28.5873 1145.71 27.964C1145.71 27.348 1145.85 26.8017 1146.12 26.325C1146.39 25.8483 1146.76 25.4817 1147.23 25.225C1147.7 24.9683 1148.22 24.84 1148.8 24.84C1149.38 24.84 1149.91 24.9683 1150.38 25.225C1150.85 25.4817 1151.22 25.8483 1151.49 26.325C1151.76 26.8017 1151.89 27.348 1151.89 27.964C1151.89 28.58 1151.76 29.1263 1151.48 29.603C1151.2 30.0797 1150.82 30.45 1150.33 30.714C1149.86 30.9707 1149.33 31.099 1148.75 31.099ZM1148.75 30.01C1149.07 30.01 1149.37 29.933 1149.65 29.779C1149.94 29.625 1150.17 29.394 1150.34 29.086C1150.52 28.778 1150.61 28.404 1150.61 27.964C1150.61 27.524 1150.52 27.1537 1150.35 26.853C1150.19 26.545 1149.96 26.314 1149.68 26.16C1149.41 26.006 1149.1 25.929 1148.78 25.929C1148.46 25.929 1148.16 26.006 1147.88 26.16C1147.61 26.314 1147.39 26.545 1147.23 26.853C1147.07 27.1537 1146.99 27.524 1146.99 27.964C1146.99 28.6167 1147.15 29.1227 1147.48 29.482C1147.82 29.834 1148.24 30.01 1148.75 30.01ZM1158.62 24.939V31H1157.37V30.285C1157.17 30.5343 1156.91 30.7323 1156.59 30.879C1156.27 31.0183 1155.94 31.088 1155.58 31.088C1155.1 31.088 1154.67 30.989 1154.29 30.791C1153.92 30.593 1153.62 30.2997 1153.4 29.911C1153.19 29.5223 1153.08 29.053 1153.08 28.503V24.939H1154.32V28.316C1154.32 28.8587 1154.46 29.2767 1154.73 29.57C1155 29.856 1155.37 29.999 1155.84 29.999C1156.31 29.999 1156.68 29.856 1156.95 29.57C1157.23 29.2767 1157.37 28.8587 1157.37 28.316V24.939H1158.62ZM1161.53 25.819C1161.72 25.511 1161.96 25.2727 1162.26 25.104C1162.57 24.928 1162.93 24.84 1163.35 24.84V26.138H1163.03C1162.54 26.138 1162.16 26.2627 1161.91 26.512C1161.66 26.7613 1161.53 27.194 1161.53 27.81V31H1160.28V24.939H1161.53V25.819ZM1169.56 31.099C1169.08 31.099 1168.65 31.0147 1168.27 30.846C1167.9 30.67 1167.6 30.4353 1167.38 30.142C1167.16 29.8413 1167.04 29.5077 1167.03 29.141H1168.33C1168.35 29.3977 1168.47 29.614 1168.69 29.79C1168.92 29.9587 1169.2 30.043 1169.54 30.043C1169.89 30.043 1170.16 29.977 1170.35 29.845C1170.55 29.7057 1170.65 29.5297 1170.65 29.317C1170.65 29.0897 1170.54 28.921 1170.32 28.811C1170.1 28.701 1169.76 28.58 1169.29 28.448C1168.84 28.3233 1168.47 28.2023 1168.18 28.085C1167.9 27.9677 1167.65 27.788 1167.43 27.546C1167.23 27.304 1167.13 26.985 1167.13 26.589C1167.13 26.2663 1167.22 25.973 1167.41 25.709C1167.6 25.4377 1167.87 25.225 1168.23 25.071C1168.59 24.917 1169 24.84 1169.46 24.84C1170.15 24.84 1170.7 25.016 1171.12 25.368C1171.54 25.7127 1171.77 26.1857 1171.8 26.787H1170.55C1170.53 26.5157 1170.42 26.2993 1170.22 26.138C1170.02 25.9767 1169.75 25.896 1169.41 25.896C1169.08 25.896 1168.83 25.9583 1168.66 26.083C1168.48 26.2077 1168.39 26.3727 1168.39 26.578C1168.39 26.7393 1168.45 26.875 1168.57 26.985C1168.68 27.095 1168.83 27.183 1169 27.249C1169.16 27.3077 1169.41 27.3847 1169.74 27.48C1170.18 27.5973 1170.54 27.7183 1170.82 27.843C1171.11 27.9603 1171.35 28.1363 1171.56 28.371C1171.76 28.6057 1171.87 28.9173 1171.88 29.306C1171.88 29.6507 1171.78 29.9587 1171.59 30.23C1171.4 30.5013 1171.13 30.714 1170.78 30.868C1170.43 31.022 1170.03 31.099 1169.56 31.099ZM1174.49 22.86V31H1173.23V22.86H1174.49ZM1178.76 31.099C1178.19 31.099 1177.67 30.9707 1177.21 30.714C1176.75 30.45 1176.39 30.0833 1176.12 29.614C1175.86 29.1373 1175.73 28.5873 1175.73 27.964C1175.73 27.348 1175.86 26.8017 1176.13 26.325C1176.4 25.8483 1176.78 25.4817 1177.24 25.225C1177.71 24.9683 1178.24 24.84 1178.82 24.84C1179.4 24.84 1179.92 24.9683 1180.39 25.225C1180.86 25.4817 1181.23 25.8483 1181.5 26.325C1181.77 26.8017 1181.91 27.348 1181.91 27.964C1181.91 28.58 1181.77 29.1263 1181.49 29.603C1181.21 30.0797 1180.83 30.45 1180.35 30.714C1179.87 30.9707 1179.34 31.099 1178.76 31.099ZM1178.76 30.01C1179.09 30.01 1179.39 29.933 1179.66 29.779C1179.95 29.625 1180.18 29.394 1180.36 29.086C1180.53 28.778 1180.62 28.404 1180.62 27.964C1180.62 27.524 1180.54 27.1537 1180.37 26.853C1180.2 26.545 1179.98 26.314 1179.7 26.16C1179.42 26.006 1179.12 25.929 1178.8 25.929C1178.47 25.929 1178.17 26.006 1177.89 26.16C1177.62 26.314 1177.41 26.545 1177.24 26.853C1177.08 27.1537 1177 27.524 1177 27.964C1177 28.6167 1177.17 29.1227 1177.5 29.482C1177.83 29.834 1178.26 30.01 1178.76 30.01ZM1184.61 25.962V29.317C1184.61 29.5443 1184.66 29.7093 1184.77 29.812C1184.88 29.9073 1185.06 29.955 1185.32 29.955H1186.09V31H1185.1C1184.53 31 1184.1 30.868 1183.8 30.604C1183.5 30.34 1183.35 29.911 1183.35 29.317V25.962H1182.63V24.939H1183.35V23.432H1184.61V24.939H1186.09V25.962H1184.61Z" fill="#D6D6D6"/>
</svg>
